<svg width="107" height="107" viewBox="0 0 107 107" fill="none" xmlns="http://www.w3.org/2000/svg">
<path d="M65.6504 97.5781C65.6504 103.514 60.8384 105.639 54.9029 105.639C48.9674 105.639 44.1553 103.514 44.1553 97.5781L46.8422 73.3961C46.8422 67.4635 48.9674 68.0223 54.9029 68.0223C60.8384 68.0223 62.9636 67.4635 62.9636 73.3961L65.6504 97.5781Z" fill="#662113"/>
<path d="M90.9203 82.2563C72.2131 66.23 64.6369 43.2845 54.9029 43.2845C45.1689 43.2845 37.5927 66.233 18.8855 82.2563C11.024 88.9913 14.769 92.8879 25.5463 92.1062C35.1525 91.4137 44.1375 89.235 54.9029 89.235C65.6683 89.235 74.6563 91.4137 84.2566 92.1062C95.0368 92.8879 98.7788 88.9883 90.9203 82.2563Z" fill="#5C913B"/>
<path d="M84.8451 75.9046C70.4684 62.7228 62.3899 43.8433 54.9029 43.8433C47.4218 43.8433 39.3404 62.7228 24.9637 75.9046C13.5385 86.3787 39.9348 88.7298 54.9029 75.9046C69.8651 88.7327 96.2673 86.3787 84.8451 75.9046Z" fill="#3E721D"/>
<path d="M84.8451 65.2254C70.4684 52.9115 62.3899 35.2744 54.9029 35.2744C47.4218 35.2744 39.3404 52.9115 24.9637 65.2254C13.5385 75.01 39.9348 77.2065 54.9029 65.2254C69.8651 77.2094 96.2673 75.01 84.8451 65.2254Z" fill="#5C913B"/>
<path d="M78.2764 56.4811C67.0563 46.866 60.7492 33.0957 54.9029 33.0957C49.0624 33.0957 42.7524 46.863 31.5293 56.4811C22.6126 64.1198 43.2161 65.8347 54.9029 56.4811C66.5837 65.8318 87.1961 64.1198 78.2764 56.4811Z" fill="#3E721D"/>
<path d="M78.2764 48.4799C67.0563 38.8648 60.7492 25.0975 54.9029 25.0975C49.0624 25.0975 42.7524 38.8648 31.5293 48.4799C22.6126 56.1215 43.2161 57.8335 54.9029 48.4799C66.5837 57.8335 87.1961 56.1215 78.2764 48.4799Z" fill="#5C913B"/>
<path d="M73.7646 41.3733C64.7083 33.6158 59.6168 22.5027 54.8999 22.5027C50.186 22.5027 45.0946 33.6158 36.0352 41.3733C28.8365 47.5407 45.4691 48.9228 54.8999 41.3733C64.3338 48.9228 80.9663 47.5407 73.7646 41.3733Z" fill="#3E721D"/>
<path d="M73.7646 35.3516C64.7083 27.5941 59.6168 16.481 54.8999 16.481C50.186 16.481 45.0946 27.5941 36.0352 35.3516C28.8365 41.519 45.4691 42.901 54.8999 35.3516C64.3338 42.901 80.9663 41.519 73.7646 35.3516Z" fill="#5C913B"/>
<path d="M69.2557 26.4855C62.3661 20.5826 58.4933 12.1266 54.9029 12.1266C51.3124 12.1266 47.4396 20.5826 40.547 26.4855C35.0692 31.1786 47.725 32.2308 54.9029 26.4855C62.0778 32.2308 74.7365 31.1786 69.2557 26.4855Z" fill="#3E721D"/>
<path d="M69.2557 23.2785C62.3661 17.3727 58.4933 8.91669 54.9029 8.91669C51.3124 8.91669 47.4396 17.3727 40.547 23.2785C35.0692 27.9716 47.725 29.0238 54.9029 23.2785C62.0778 29.0208 74.7365 27.9686 69.2557 23.2785Z" fill="#5C913B"/>
<path d="M49.0416 40.2499C51.5039 40.2499 53.5 38.2538 53.5 35.7915C53.5 33.3293 51.5039 31.3332 49.0416 31.3332C46.5794 31.3332 44.5833 33.3293 44.5833 35.7915C44.5833 38.2538 46.5794 40.2499 49.0416 40.2499Z" fill="#FFCC4D"/>
<path d="M59.4444 80.25C62.7275 80.25 65.3889 77.5886 65.3889 74.3055C65.3889 71.0225 62.7275 68.3611 59.4444 68.3611C56.1614 68.3611 53.5 71.0225 53.5 74.3055C53.5 77.5886 56.1614 80.25 59.4444 80.25Z" fill="#FFCC4D"/>
<path d="M66.875 53.5C70.9788 53.5 74.3056 50.1733 74.3056 46.0695C74.3056 41.9657 70.9788 38.6389 66.875 38.6389C62.7712 38.6389 59.4445 41.9657 59.4445 46.0695C59.4445 50.1733 62.7712 53.5 66.875 53.5Z" fill="#DD2E44"/>
<path d="M29.7222 83.2222C33.0052 83.2222 35.6667 80.5608 35.6667 77.2778C35.6667 73.9947 33.0052 71.3333 29.7222 71.3333C26.4392 71.3333 23.7778 73.9947 23.7778 77.2778C23.7778 80.5608 26.4392 83.2222 29.7222 83.2222Z" fill="#DD2E44"/>
<path d="M41.6111 62.4167C44.8942 62.4167 47.5556 59.7552 47.5556 56.4722C47.5556 53.1892 44.8942 50.5278 41.6111 50.5278C38.3281 50.5278 35.6667 53.1892 35.6667 56.4722C35.6667 59.7552 38.3281 62.4167 41.6111 62.4167Z" fill="#A6D388"/>
<path d="M77.2778 74.3056C80.5608 74.3056 83.2222 71.6442 83.2222 68.3611C83.2222 65.0781 80.5608 62.4167 77.2778 62.4167C73.9947 62.4167 71.3333 65.0781 71.3333 68.3611C71.3333 71.6442 73.9947 74.3056 77.2778 74.3056Z" fill="#A6D388"/>
<path d="M57.5987 4.99036C58.0237 5.80772 59.1205 6.62211 60.027 6.80044L64.1257 7.59997C65.0322 7.7783 65.2462 8.46191 64.5983 9.12175L61.6766 12.1059C61.0316 12.7657 60.5917 14.0586 60.7077 14.9741L61.2129 19.1173C61.3259 20.0357 60.7403 20.4489 59.9111 20.0387L56.175 18.1811C55.3458 17.7709 53.9815 17.7531 53.1433 18.1424L49.3567 19.9079C48.5186 20.2943 47.942 19.8663 48.0787 18.9509L48.688 14.8195C48.8217 13.907 48.4175 12.6052 47.7904 11.9275L44.94 8.87505C44.3099 8.20036 44.5388 7.51675 45.4512 7.36516L49.5678 6.66966C50.4802 6.51808 51.5919 5.73044 52.0407 4.922L54.0647 1.26914C54.5135 0.460692 55.2358 0.469609 55.6608 1.28697L57.5987 4.99036Z" fill="#FFAC33"/>
</svg>
