<svg width="89" height="55" viewBox="0 0 89 55" fill="none" xmlns="http://www.w3.org/2000/svg">
<path d="M30.0741 11.629H58.4257V54.6375H30.0741V11.629Z" stroke="black" stroke-width="0.5" stroke-linecap="round" stroke-linejoin="round"/>
<path d="M27.1413 11.629H30.0743V15.2946H3.55573L9.43685 7.96332H32.6574L27.1413 11.629ZM61.3588 11.629H58.432V15.2946H84.9505L79.0694 7.96332H55.8473L61.3588 11.629Z" stroke="black" stroke-width="0.5" stroke-linecap="round" stroke-linejoin="round"/>
<path d="M30.0711 50.1373H58.4289M3.54954 47.8818V15.2994H30.0711M84.9505 54.6327H3.54954M58.4289 15.2994H84.9505V47.8818M44.25 50.1373V34.9183M61.3587 11.629H27.1413L30.0742 9.68154L44.25 0.25L61.3587 11.629ZM4.0903 47.8829H26.2293C26.7338 47.8828 27.2333 47.9603 27.6994 48.1111C28.1655 48.2619 28.589 48.483 28.9458 48.7617C29.3026 49.0405 29.5856 49.3714 29.7787 49.7357C29.9718 50.1 30.0711 50.4904 30.0711 50.8847V54.6327H0.25V50.8835C0.250405 50.0876 0.655185 49.3244 1.37534 48.7617C2.09549 48.199 3.07205 47.8829 4.0903 47.8829ZM62.2707 47.8829H84.4097C85.4282 47.8829 86.405 48.1992 87.1252 48.7621C87.8454 49.3251 88.25 50.0886 88.25 50.8847V54.6327H58.4289V50.8835C58.4291 50.4893 58.5286 50.099 58.7218 49.7349C58.915 49.3708 59.198 49.0399 59.5547 48.7613C59.9115 48.4827 60.335 48.2617 60.801 48.111C61.267 47.9603 61.7664 47.8828 62.2707 47.8829ZM36.0393 34.9183H52.4622V50.1373H36.0393V34.9183Z" stroke="black" stroke-width="0.5" stroke-linecap="round" stroke-linejoin="round"/>
<path d="M44.2501 30.7928C49.5634 30.7928 53.8707 27.4261 53.8707 23.2729C53.8707 19.1198 49.5634 15.753 44.2501 15.753C38.9368 15.753 34.6295 19.1198 34.6295 23.2729C34.6295 27.4261 38.9368 30.7928 44.2501 30.7928Z" stroke="black" stroke-width="0.5" stroke-linecap="round" stroke-linejoin="round"/>
<path d="M44.2501 18.8649V23.8523L47.4411 22.6057M20.5697 47.8819V43.064M10.2098 47.8819V43.064M23.5302 37.2802H20.5697V31.4952M13.1702 37.2802H10.2098V31.4952M23.5302 25.7114H20.5697V19.9275M13.1702 25.7114H10.2098V19.9275M75.3299 47.8819V43.064M64.9699 47.8819V43.064M78.2903 37.2802H75.3299V31.4952M67.9304 37.2802H64.9699V31.4952M78.2903 25.7114H75.3299V19.9275M67.9304 25.7114H64.9699V19.9275" stroke="black" stroke-width="0.5" stroke-linecap="round" stroke-linejoin="round"/>
</svg>
