<svg width="100" height="100" viewBox="0 0 100 100" fill="none" xmlns="http://www.w3.org/2000/svg">
<path d="M16.6667 70.8333C16.6667 74.1485 17.9836 77.328 20.3279 79.6722C22.6721 82.0164 25.8515 83.3333 29.1667 83.3333M61.6875 26.5417L73.2833 14.9417C74.8459 13.3785 76.9654 12.5002 79.1756 12.4998C81.3858 12.4994 83.5056 13.377 85.0688 14.9396C86.6319 16.5022 87.5103 18.6217 87.5107 20.8319C87.511 23.0421 86.6334 25.1619 85.0709 26.725L73.4708 38.3333" stroke="black" stroke-width="2" stroke-linecap="round" stroke-linejoin="round"/>
<path d="M68.7708 31.2292C72.6303 35.0881 74.8587 40.2829 74.9952 45.7389C75.1317 51.1949 73.1658 56.4946 69.5042 60.5417L68.7708 61.3083L60.9917 69.0875C58.5016 71.5751 57.0014 74.8836 56.7708 78.3958L56.7375 79.3542V83.2458C56.7375 84.6083 56.1958 85.9125 55.2375 86.875C54.886 87.2289 54.4213 87.4478 53.9246 87.4935C53.4279 87.5392 52.931 87.4088 52.5208 87.125L52.2292 86.875L13.125 47.775C12.9272 47.5776 12.7703 47.3432 12.6632 47.0851C12.5561 46.827 12.501 46.5503 12.501 46.2708C12.501 45.9914 12.5561 45.7147 12.6632 45.4566C12.7703 45.1985 12.9272 44.9641 13.125 44.7667C13.95 43.9417 15.025 43.425 16.175 43.2958L16.7542 43.2625H20.6417C24.175 43.2625 27.5708 41.975 30.2125 39.6625L30.9125 39.0083L38.6917 31.2292L39.3583 30.5917C43.3987 26.888 48.7128 24.8869 54.1926 25.0056C59.6723 25.1244 64.8947 27.3539 68.7708 31.2292Z" stroke="black" stroke-width="2" stroke-linecap="round" stroke-linejoin="round"/>
</svg>
