<svg width="102" height="102" viewBox="0 0 102 102" fill="none" xmlns="http://www.w3.org/2000/svg">
<path d="M71.0181 96.1372C71.0181 99.2651 62.1202 101.801 51.1442 101.801C40.1683 101.801 31.2704 99.2651 31.2704 96.1372C31.2704 93.6071 40.8807 86.2079 47.2981 83.4715V51.0233H54.9904V83.4715C61.4076 86.2079 71.0181 93.6071 71.0181 96.1372Z" fill="#D1CFC3"/>
<path d="M94.9009 38.5881C94.9009 38.5881 94.3044 75.8717 50.6827 75.8717C7.06092 75.8717 7.38764 38.5881 7.38764 38.5881C7.38764 38.518 7.39721 38.451 7.40119 38.3823C7.6797 44.5673 27.1519 49.5597 51.144 49.5597C75.1374 49.5597 94.6096 44.5673 94.8873 38.3817C94.8913 38.4506 94.9009 38.518 94.9009 38.5881Z" fill="#E5E4DF"/>
<path d="M51.1439 26.937C26.9784 26.937 7.38745 32.0011 7.38745 38.2484C7.38745 38.293 7.39881 38.3376 7.401 38.3823C7.67951 44.5674 27.1517 49.5596 51.1439 49.5596C75.137 49.5596 94.6094 44.5672 94.8871 38.3817C94.8895 38.337 94.9001 38.293 94.9001 38.2484C94.9001 32.0011 75.3103 26.937 51.1439 26.937Z" fill="#D1CFC3"/>
<path d="M49.9374 40.6821C49.9374 43.8706 49.1626 46.8778 47.792 49.5268C31.711 49.2118 18.0644 46.6493 11.5292 43.0516C11.4328 42.2654 11.3844 41.4741 11.3842 40.6821C11.3842 30.0358 20.0145 21.4055 30.6608 21.4055C41.307 21.4055 49.9374 30.0358 49.9374 40.6821Z" fill="#77431D"/>
<path d="M87.8467 43.0781C87.8467 43.5299 87.831 43.9779 87.8033 44.4228C79.9969 47.5155 66.496 49.5596 51.1436 49.5596C49.4335 49.5596 47.7474 49.5333 46.0885 49.4841C45.4387 47.411 45.1091 45.2508 45.1111 43.0783C45.1111 31.2771 54.6778 21.7104 66.4789 21.7104C78.28 21.7103 87.8467 31.2769 87.8467 43.0781Z" fill="#FFE1AB"/>
<path d="M82.0351 28.3644C82.0351 31.6905 79.3386 34.3869 76.0125 34.3869C75.4294 34.3869 74.8664 34.3025 74.3331 34.1479C74.4263 36.5168 73.1079 38.8182 70.8181 39.8647C68.5091 40.9197 65.8822 40.3926 64.1524 38.7395C63.3854 41.1835 61.1028 42.9565 58.4055 42.9565C55.5539 42.9565 53.1671 40.9741 52.5435 38.3128C51.4391 39.5959 49.8043 40.4095 47.9784 40.4095C44.6523 40.4095 41.9558 37.7131 41.9558 34.3869C41.9558 34.3071 41.9588 34.228 41.9618 34.1489C39.3839 34.8999 36.5273 33.8481 35.0973 31.4305C33.404 28.5678 34.3519 24.8743 37.2148 23.1809C37.8731 22.7908 38.5999 22.5303 39.356 22.4135C39.2047 21.4324 39.1287 20.4411 39.1289 19.4483C39.1289 8.80208 47.7593 0.171722 58.4055 0.171722C69.0518 0.171722 77.6821 8.80208 77.6821 19.4483C77.6821 20.4916 77.5981 21.515 77.4385 22.5135C80.0764 23.154 82.0351 25.5299 82.0351 28.3644Z" fill="#FFA9BA"/>
</svg>
