<svg width="102" height="102" viewBox="0 0 102 102" fill="none" xmlns="http://www.w3.org/2000/svg">
<g clip-path="url(#clip0_3_145)">
<path d="M76.7287 51.7776C76.4806 51.9342 76.224 52.0771 75.9601 52.2055L75.9492 52.2101L75.4055 52.4726L74.7505 52.782L74.5499 52.8748L74.3401 52.9607L73.8795 53.1472C73.2235 53.4227 72.4533 53.6833 71.5731 53.963C71.1406 54.0865 70.6766 54.2234 70.1941 54.3507C69.7186 54.4634 69.2138 54.5903 68.6964 54.7011C68.185 54.7995 67.6439 54.9178 67.0999 55.0055C66.5572 55.0904 65.9884 55.1936 65.4223 55.2597L64.5565 55.3707C64.2652 55.4059 63.9749 55.4312 63.6793 55.4619C63.0866 55.5266 62.4912 55.5695 61.8857 55.6129C61.2783 55.6615 60.6737 55.68 60.0553 55.7143C59.4437 55.732 58.8223 55.7569 58.2036 55.7629C56.964 55.7808 55.7169 55.7697 54.4802 55.7326C49.532 55.588 44.74 55.0386 41.1437 54.4953C40.2438 54.3566 39.42 54.2244 38.6851 54.0947C38.0454 53.9841 37.4071 53.866 36.7702 53.7405C36.2572 53.6398 35.7227 53.5309 35.4884 53.4769L35.0862 53.3864C31.8531 52.6589 29.8221 49.4481 30.5496 46.215C30.9897 44.2594 32.3388 42.745 34.0513 42.0132C33.7695 41.3074 33.625 40.5543 33.6254 39.7943C33.6254 37.0348 35.4904 34.7123 38.0285 34.0146C37.4672 33.0828 37.1713 32.0153 37.1728 30.9275C37.1728 27.6165 39.8569 24.9324 43.1679 24.9324C43.2122 24.9324 43.2966 24.932 43.4142 24.93C43.273 24.664 43.1521 24.3876 43.0526 24.1033C42.8106 23.7778 42.6066 23.4258 42.4446 23.054C41.272 20.36 42.5053 17.2254 45.1994 16.0526C45.4876 15.9292 45.7855 15.8298 46.0901 15.7554L47.1981 15.4914C47.3471 15.4544 47.5063 15.4207 47.6924 15.3717L48.3072 15.2022L48.9937 14.9916C49.228 14.9097 49.484 14.8308 49.7374 14.7362C50.2563 14.5595 50.7946 14.342 51.349 14.0937C51.9156 13.8395 52.4645 13.5477 52.9922 13.2204C53.5261 12.8857 54.0469 12.5195 54.5128 12.1041C54.7531 11.8995 54.9641 11.6786 55.1774 11.4537C55.3774 11.2248 55.5745 10.9891 55.7438 10.7423C56.0825 10.2595 56.3479 9.72917 56.5313 9.16864C56.708 8.61959 56.8092 8.04445 56.7981 7.48265C56.7889 6.92265 56.6889 6.37161 56.503 5.89209C56.3263 5.40839 56.0811 4.97887 55.7968 4.65972C55.6645 4.50705 55.5176 4.36773 55.3581 4.24375C55.2153 4.13928 55.0645 4.04616 54.9071 3.96525C54.6087 3.8246 54.3142 3.75826 54.0564 3.7479C53.7988 3.73714 53.5821 3.77758 53.4303 3.80129L53.1978 3.86006L53.1516 3.87181C52.928 3.92828 52.6919 3.90834 52.4809 3.81518C52.2699 3.72202 52.0962 3.56098 51.9873 3.35769C51.8783 3.15439 51.8406 2.92051 51.8799 2.69325C51.9192 2.466 52.0334 2.25842 52.2043 2.10355L52.5065 1.82962C52.7175 1.66268 53.039 1.40907 53.5397 1.19033C54.0351 0.965212 54.7148 0.792688 55.5263 0.790497C56.3339 0.793087 57.2473 1.00665 58.1287 1.43537C59.01 1.86966 59.8431 2.5227 60.5693 3.34588C61.2823 4.17741 61.8786 5.18088 62.2929 6.30906C62.6965 7.43843 62.9125 8.68474 62.9187 9.95914C62.914 10.3536 62.8901 10.7476 62.8472 11.1397C64.1121 11.3661 65.2701 11.9948 66.149 12.9323C67.4015 14.2641 67.9252 16.0172 67.7386 17.7022C68.7236 18.0084 69.6124 18.5648 70.3183 19.317C72.2489 21.3702 72.4507 24.4238 70.9809 26.6863C72.1652 26.9423 73.2436 27.5528 74.0725 28.4367C76.3408 30.8486 76.2243 34.6427 73.8122 36.911C73.6474 37.066 73.4783 37.2135 73.3105 37.3633C75.631 37.5928 77.8256 38.8494 79.1674 40.9737C81.4781 44.6302 80.386 49.4676 76.7287 51.7776Z" fill="#F4E3C1"/>
<path d="M69.0727 95.1953L68.9717 95.1969C68.401 99.0064 62.6414 102 55.6155 102C48.5893 102 42.8292 99.006 42.2591 95.1961L42.2089 95.1953L36.9754 62.3085H74.3062L69.0727 95.1953Z" fill="#FFD45F"/>
<path d="M74.3062 64.7891H36.9754L37.9416 70.8609C40.0232 71.5701 42.6121 72.2311 45.69 72.7061L41.0823 77.3138L39.0453 75.2768L39.5421 78.4047L39.7669 78.6294L39.6037 78.7926L39.9643 81.0631L41.0823 79.9451L46.2194 85.0821L41.3724 89.9291L41.9788 93.7468L46.2194 97.9873L45.0591 99.1476C45.5571 99.5 46.111 99.8267 46.714 100.124L47.535 99.3028L49.3802 101.148C50.4093 101.448 51.5176 101.676 52.6834 101.82L48.8506 97.9873L53.9877 92.8503L59.1247 97.9873L55.1185 101.994C55.2838 101.997 55.449 102 55.6157 102C56.3765 102 57.1212 101.963 57.8474 101.896L60.4402 99.3028L62.1851 101.048C62.8353 100.846 63.4725 100.605 64.0929 100.324L61.7556 97.9871L66.8927 92.8501L69.0956 95.053L69.4568 92.7831L68.2083 91.5346L69.9296 89.8134L70.4274 86.6845L66.8929 90.219L61.7558 85.0819L66.8929 79.9449L70.8675 83.9195L71.2287 81.6496L68.2083 78.6292L72.3718 74.4658L72.9033 71.1253C73.0452 71.0771 73.1845 71.0285 73.3213 70.9796L74.3062 64.7891ZM55.6155 73.4322C56.3996 73.4321 57.1604 73.4224 57.898 73.4031L53.9875 77.3136L49.8718 73.1979C51.7823 73.3554 53.6985 73.4336 55.6155 73.4322ZM42.3977 78.6292L47.5348 73.4922L52.6718 78.6292L47.5348 83.7663L42.3977 78.6292ZM47.5348 96.6715L42.3977 91.5344L47.5348 86.3974L52.6718 91.5344L47.5348 96.6715ZM48.8502 85.0817L53.9873 79.9447L59.1243 85.0817L53.9873 90.2188L48.8502 85.0817ZM65.577 91.5344L60.44 96.6715L55.3029 91.5344L60.44 86.3974L65.577 91.5344ZM60.44 83.7663L55.3029 78.6292L60.44 73.4922L65.577 78.6292L60.44 83.7663ZM72.0295 72.1766L66.8925 77.3136L62.7071 73.1282C66.2526 72.8043 69.1255 72.2473 71.4369 71.5841L72.0295 72.1766Z" fill="#EABC54"/>
<path d="M80.4021 53.5859L78.5002 63.2147C78.4161 63.6392 78.2218 64.0342 77.9367 64.3598C77.6517 64.6855 77.286 64.9304 76.8763 65.07C76.8346 65.1181 76.7891 65.1627 76.7403 65.2035C74.3204 67.1923 68.341 70.0162 55.6155 70.0162C42.89 70.0162 35.5044 66.4893 33.8369 64.822C33.5528 64.6436 33.3081 64.409 33.1179 64.1327C32.9277 63.8563 32.796 63.544 32.7309 63.2149L30.8289 53.5861C30.506 51.9515 32.0262 50.548 33.6266 51.0118C37.0061 51.9913 43.4387 52.9926 55.6155 52.9926C67.7924 52.9926 74.2249 51.9913 77.6045 51.0118C79.2046 50.5478 80.7249 51.9513 80.4021 53.5859Z" fill="#FFD45F"/>
<path d="M55.996 60.0806C46.508 60.0806 39.4794 59.4375 35.1049 58.1699C34.0449 57.8625 33.4345 56.7541 33.7419 55.6938C34.0493 54.6336 35.1581 54.023 36.2178 54.3306C38.9765 55.1302 44.6471 56.0833 55.996 56.0833C57.0997 56.0833 57.9946 56.9782 57.9946 58.0818C57.9946 59.1855 57.0997 60.0806 55.996 60.0806Z" fill="#FFE6A9"/>
</g>
<defs>
<clipPath id="clip0_3_145">
<rect width="102" height="102" fill="white"/>
</clipPath>
</defs>
</svg>
