<svg width="104" height="104" viewBox="0 0 104 104" fill="none" xmlns="http://www.w3.org/2000/svg">
<path d="M52 9.75C43.0625 9.75 35.75 17.0625 35.75 26C35.75 31.1025 38.2395 35.6103 41.9445 38.5938C36.322 42.0225 32.5 48.204 32.5 55.25V66.3195L33.4133 67.3367L39 72.9203V94.25H45.5V78H58.5V94.25H65V72.9203L70.5867 67.3367L71.5 66.3195V55.25C71.5 48.204 67.678 42.0225 62.0555 38.5938C65.7605 35.6103 68.25 31.1025 68.25 26C68.25 17.0625 60.9375 9.75 52 9.75ZM52 16.25C57.421 16.25 61.75 20.579 61.75 26C61.75 31.421 57.421 35.75 52 35.75C46.579 35.75 42.25 31.421 42.25 26C42.25 20.579 46.579 16.25 52 16.25ZM52 42.25C59.2118 42.25 65 48.0382 65 55.25V63.5797L63.5765 65H40.4203L39 63.5765V55.25C39 48.0382 44.7882 42.25 52 42.25Z" fill="black"/>
</svg>
