<svg width="100" height="100" viewBox="0 0 100 100" fill="none" xmlns="http://www.w3.org/2000/svg">
<path d="M40.1042 72.5C37.1181 70.8333 34.7222 68.5417 32.9167 65.625C32.5 64.9305 32.4833 64.2361 32.8667 63.5417C33.25 62.8472 33.8569 62.5 34.6875 62.5H65.3125C66.0764 62.5 66.6667 62.8472 67.0833 63.5417C67.5 64.2361 67.5 64.9305 67.0833 65.625C65.2778 68.5417 62.8819 70.8333 59.8958 72.5C56.9097 74.1667 53.6111 75 50 75C46.3889 75 43.0903 74.1667 40.1042 72.5ZM35.8875 54.7417C34.8792 53.7333 34.375 52.5 34.375 51.0417C34.375 49.5833 34.8792 48.35 35.8875 47.3417C36.8958 46.3333 38.1278 45.8305 39.5833 45.8333C41.0389 45.8361 42.2722 46.3403 43.2833 47.3458C44.2944 48.3514 44.7972 49.5833 44.7917 51.0417C44.7861 52.5 44.2819 53.7333 43.2792 54.7417C42.2764 55.75 41.0444 56.2528 39.5833 56.25C38.1222 56.2472 36.8889 55.743 35.8833 54.7375M56.7167 54.7375C55.7111 53.7319 55.2083 52.5 55.2083 51.0417C55.2083 49.5833 55.7125 48.35 56.7208 47.3417C57.7292 46.3333 58.9611 45.8305 60.4167 45.8333C61.8722 45.8361 63.1056 46.3403 64.1167 47.3458C65.1278 48.3514 65.6306 49.5833 65.625 51.0417C65.6194 52.5 65.1153 53.7333 64.1125 54.7417C63.1097 55.75 61.8778 56.2528 60.4167 56.25C58.9556 56.2472 57.7222 55.743 56.7167 54.7375ZM50 91.6667C39.6528 91.6667 30.8514 88.0722 23.5958 80.8833C16.3403 73.6944 12.6417 64.9278 12.5 54.5833L20.9375 51.4583C20.8681 51.9444 20.8333 52.3958 20.8333 52.8125V54.1667C20.8333 62.2917 23.6639 69.1847 29.325 74.8458C34.9861 80.5069 41.8778 83.3361 50 83.3333C58.1222 83.3305 65.0153 80.5014 70.6792 74.8458C76.3431 69.1903 79.1722 62.2972 79.1667 54.1667C79.1667 53.0555 79.1139 51.9611 79.0083 50.8833C78.9028 49.8055 78.7125 48.7472 78.4375 47.7083C74.2708 47.2222 70.3292 46.1639 66.6125 44.5333C62.8958 42.9028 59.4778 40.7667 56.3583 38.125L78.5458 29.7917C81.3931 33.125 83.5986 36.8583 85.1625 40.9917C86.7264 45.125 87.5056 49.5167 87.5 54.1667C87.5 59.375 86.5111 64.2542 84.5333 68.8042C82.5556 73.3542 79.8819 77.3125 76.5125 80.6792C73.1431 84.0458 69.1847 86.7194 64.6375 88.7C60.0903 90.6805 55.2111 91.6694 50 91.6667ZM14.1667 47.3958C13.6806 46.0069 13.2819 44.5833 12.9708 43.125C12.6597 41.6667 12.5028 40.1736 12.5 38.6458C12.5 32.3264 14.2708 26.6667 17.8125 21.6667C21.3542 16.6667 25.8333 12.7778 31.25 9.99999C31.1111 9.72221 31.025 9.46249 30.9917 9.22082C30.9583 8.97916 30.9403 8.68332 30.9375 8.33332C30.9375 7.15277 31.3375 6.16388 32.1375 5.36666C32.9375 4.56943 33.9264 4.16943 35.1042 4.16666C36.0764 4.16666 36.9097 4.44443 37.6042 4.99999C38.2986 5.55555 38.7847 6.24999 39.0625 7.08332C40.5903 6.7361 42.1014 6.45832 43.5958 6.24999C45.0903 6.04166 46.6347 5.93749 48.2292 5.93749C52.8819 5.93749 57.3097 6.84027 61.5125 8.64582C65.7153 10.4514 69.4125 13.0555 72.6042 16.4583L81.4583 13.125C82.5694 12.7083 83.6292 12.743 84.6375 13.2292C85.6458 13.7153 86.3569 14.5139 86.7708 15.625C87.1847 16.7361 87.1681 17.7958 86.7208 18.8042C86.2736 19.8125 85.4917 20.5236 84.375 20.9375L14.1667 47.3958Z" fill="black"/>
</svg>
