<svg width="96" height="96" viewBox="0 0 96 96" fill="none" xmlns="http://www.w3.org/2000/svg">
<path d="M72 5.58749C60 5.58749 53.9625 10.7625 48 17.5875C42.0375 10.7625 36 5.58749 24 5.58749C12 5.58749 0 13.5937 0 37.5937C0 49.5937 12 73.5937 48 93.6C84 73.5937 96 49.5937 96 37.5937C96 13.5937 84 5.58749 72 5.58749ZM48 84.375C15.3187 64.9875 8.00625 44.1937 8.00625 37.5937C8.00625 26.6437 10.7812 13.5937 24 13.5937C32.4 13.5937 36.4875 16.575 41.9812 22.8562L48 29.5875L54.0188 22.8562C59.5125 16.575 63.6 13.5937 72 13.5937C85.2188 13.5937 87.9937 26.6437 87.9937 37.5937C87.9937 44.1937 80.6813 64.9875 48 84.375Z" fill="black"/>
</svg>
