<svg width="88" height="88" viewBox="0 0 88 88" fill="none" xmlns="http://www.w3.org/2000/svg">
<path d="M11.4351 69.0629H76.5649V28.8004H55.3447V25.2487H32.6553V28.8004H11.4351V69.0629Z" fill="#D0CFCE"/>
<path d="M37.4305 48.8828H50.5707V64.4612H37.4305V48.8828Z" fill="#A57939"/>
<path d="M44 44.66C48.2512 44.66 51.6975 41.2137 51.6975 36.9624C51.6975 32.7112 48.2512 29.2649 44 29.2649C39.7487 29.2649 36.3024 32.7112 36.3024 36.9624C36.3024 41.2137 39.7487 44.66 44 44.66Z" fill="white"/>
<path d="M25.0531 57.2208H27.4218V62.1524H25.0531V57.2208ZM16.764 57.2208H19.1326V62.1524H16.764V57.2208ZM25.0531 45.3787H27.4218V51.2991H25.0531V45.3787ZM16.764 45.3787H19.1326V51.2991H16.764V45.3787ZM25.0531 33.5378H27.4218V39.4582H25.0531V33.5378ZM16.764 33.5378H19.1326V39.4582H16.764V33.5378ZM68.8673 57.2208H71.236V62.1524H68.8673V57.2208ZM60.5782 57.2208H62.9469V62.1524H60.5782V57.2208ZM68.8673 45.3787H71.236V51.2991H68.8673V45.3787ZM60.5782 45.3787H62.9469V51.2991H60.5782V45.3787ZM68.8673 33.5378H71.236V39.4582H68.8673V33.5378ZM60.5782 33.5378H62.9469V39.4582H60.5782V33.5378Z" stroke="#92D3F5" stroke-width="0.5" stroke-linecap="round" stroke-linejoin="round"/>
<path d="M57.6889 25.0433H30.3111L32.6578 23.0499L44 13.3956L57.6889 25.0433Z" fill="#EA5A47"/>
</svg>
