<svg width="96" height="96" viewBox="0 0 96 96" fill="none" xmlns="http://www.w3.org/2000/svg">
<path d="M95.295 83.6655C95.295 90.1335 74.721 95.3745 49.3275 95.3745C23.946 95.3745 3.36603 90.135 3.36603 83.6655C3.36603 77.2005 23.946 71.955 49.3275 71.955C74.721 71.955 95.295 77.202 95.295 83.6655Z" fill="#D1D2D2"/>
<path d="M86.115 82.299C86.115 87.4725 69.651 91.6665 49.338 91.6665C29.0355 91.6665 12.5655 87.4725 12.5655 82.299C12.5655 77.1315 29.0355 72.9315 49.338 72.9315C69.6525 72.9315 86.115 77.1315 86.115 82.299Z" fill="#888787"/>
<path d="M81.825 30.5415H16.98C14.673 30.5415 12.81 32.304 12.81 34.4865L16.0155 74.883C16.0155 76.026 16.536 77.0475 17.352 77.7705C19.3395 83.322 32.148 87.627 49.047 87.627C65.577 87.627 78.1365 83.5125 80.607 78.1485C81.7065 77.4315 82.428 76.2435 82.428 74.883L85.9875 34.4865C85.9875 32.304 84.126 30.5415 81.825 30.5415Z" fill="#BFC0BF"/>
<path d="M40.605 77.7705C40.188 77.4133 39.8529 76.9706 39.6223 76.4723C39.3916 75.9741 39.271 75.432 39.2685 74.883L37.1865 34.4865C37.1865 32.304 39.0495 30.5415 41.3505 30.5415H16.7955C14.49 30.5415 12.633 32.304 12.633 34.4865L15.8385 74.883C15.8385 76.026 16.353 77.0475 17.175 77.7705C19.1565 83.322 31.965 87.627 48.87 87.627C53.211 87.627 57.357 87.339 61.1535 86.823C50.1585 85.3335 42.081 81.897 40.608 77.778" fill="#D7D7D7"/>
<path d="M49.476 74.469C65.7975 74.469 79.731 70.251 85.2255 64.3095L85.644 55.812C80.4525 62.004 66.2235 66.4515 49.479 66.4515C32.607 66.4515 18.2835 61.9365 13.194 55.6695L13.5495 64.1085C18.9195 70.1535 32.976 74.469 49.476 74.469Z" fill="#E7128B"/>
<path d="M49.398 47.7075C70.3158 47.7075 87.273 41.9555 87.273 34.86C87.273 27.7645 70.3158 22.0125 49.398 22.0125C28.4802 22.0125 11.523 27.7645 11.523 34.86C11.523 41.9555 28.4802 47.7075 49.398 47.7075Z" fill="#E7128B"/>
<path d="M89.475 36.3C89.475 37.1625 89.2335 38.0055 88.7715 38.8305C88.653 39.0315 88.5165 39.2955 88.38 39.4935C87.546 40.6695 87.546 42.1065 86.919 43.3725C85.9665 44.4315 85.0035 45.555 84.0045 46.6665C82.881 48.1095 81.7755 49.404 80.6745 50.3805C75.777 59.334 67.3275 54.537 59.5095 52.0185C58.1625 51.6645 56.772 51.243 55.2525 50.823C53.7615 50.5254 52.2426 50.3906 50.7225 50.421C48.186 50.58 45.909 51.8115 43.68 51.639C42.432 51.555 41.274 50.118 39.8475 49.74C39.528 49.662 39.12 49.5255 38.7885 49.431C38.505 49.425 38.2095 49.431 37.926 49.437C37.2165 49.5255 36.501 49.656 35.7435 49.7805C35.448 49.839 35.0985 49.923 34.638 50.082C33.5205 50.625 32.415 51.7785 31.551 51.8085C25.614 49.2 18.2865 51.867 13.212 47.5965C10.398 45.468 11.5215 41.1975 10.716 38.124C10.4779 37.5444 10.3556 36.9237 10.356 36.297C10.356 28.887 28.068 22.878 49.9125 22.878C71.7705 22.881 89.475 28.893 89.475 36.3Z" fill="#E7128B"/>
<path d="M41.9655 43.248C41.9655 36.864 58.0455 31.686 77.886 31.686C79.796 31.686 81.6645 31.7335 83.4915 31.8285C79.2735 26.949 65.3865 23.3745 48.9015 23.3745C29.067 23.3745 12.9885 28.5435 12.9885 34.9305C12.9885 40.7025 26.1225 45.4905 43.2885 46.35C42.4365 45.3615 41.97 44.3265 41.97 43.248" fill="#D167A7"/>
<path d="M83.4735 42.255C83.343 42.483 83.1945 42.699 83.0535 42.924C82.8645 42.9645 82.6995 43.0185 82.6335 43.083C80.5441 44.9962 78.147 46.5434 75.543 47.6595C75.33 47.724 75.129 47.796 74.928 47.8545C74.289 48.0615 73.242 48.357 72.414 48.783C70.7355 49.2675 68.718 49.9305 68.127 51.45C68.097 51.522 68.163 51.5745 68.2455 51.5925C75.732 53.0925 81.924 47.1285 84.7755 42.078C84.9015 41.853 83.6355 41.958 83.469 42.255M74.871 49.128C74.3111 49.4116 73.7298 49.6509 73.1325 49.8435C73.458 49.689 73.7715 49.548 73.9485 49.4715C74.2555 49.3535 74.563 49.239 74.871 49.128ZM69.6195 50.8485C69.7069 50.9257 69.8129 50.979 69.927 51.003C69.861 51.1515 70.2525 51.174 70.4475 51.1515C70.554 51.138 70.6545 51.126 70.761 51.1095C71.328 51.1515 71.931 51.1395 72.552 51.075H72.576C73.1466 51.031 73.7103 50.9218 74.256 50.7495C74.3265 50.7255 74.4045 50.715 74.475 50.691C74.24 50.785 74.0015 50.8735 73.7595 50.9565C73.1085 51.186 69.6315 51.534 69.6195 50.8485ZM13.254 40.2345C13.473 41.5035 14.07 42.5355 15.3885 42.99C15.531 43.0425 16.524 42.8595 16.3755 42.6465C15.5355 41.4465 14.7795 40.1955 13.9395 38.994C13.7505 38.7195 12.7455 39.1155 12.8505 39.27C13.6905 40.473 14.4525 41.721 15.288 42.9195C15.62 42.8065 15.949 42.69 16.275 42.57C15.045 42.144 14.5425 41.109 14.3475 39.957C14.307 39.711 13.206 39.945 13.254 40.2345Z" fill="white"/>
<path d="M44.9925 23.853C43.923 27.732 43.8345 32.553 44.8035 36.5385C45.1935 38.1645 45.867 40.554 47.541 41.3115C49.2795 42.0855 50.9535 41.4885 51.7755 39.7965C52.509 38.3115 52.314 36.219 52.0125 34.6035C51.15 29.967 51.1845 26.082 54.1005 22.197C54.219 22.0485 54.7035 19.9785 54.486 19.707C51.048 15.4065 46.134 19.7595 44.9925 23.8515" fill="#8A603E"/>
<path d="M51.42 17.952C48.6285 17.7975 45.8145 20.886 44.985 23.8545C43.9155 27.7395 43.827 32.5605 44.79 36.54C45.186 38.166 45.8595 40.5555 47.5335 41.313C47.7595 41.409 47.9825 41.4855 48.2025 41.5425C46.7475 33.18 47.1735 25.29 51.42 17.952Z" fill="#755137"/>
<path d="M57.849 21.465C57.222 19.254 55.767 17.16 54.2475 15.2745C53.118 13.884 51.942 12.72 51.333 11.0985C50.5935 9.12451 51.6705 6.47401 51.6465 4.42801C51.6465 4.33351 51.6285 4.24951 51.6165 4.16101C51.7123 3.21199 51.6012 2.25348 51.291 1.35151C50.658 -0.581992 46.9155 0.237008 47.553 2.17951C49.434 7.90351 39.108 11.334 38.322 16.9635C37.476 23.037 42.7035 29.7015 49.599 32.1615C50.7525 32.5755 51.828 32.079 52.308 31.392C57.4005 29.466 59.103 25.929 57.849 21.465Z" fill="#D7B62A"/>
<path d="M46.755 16.9755C47.0865 14.604 49.1145 12.6195 51.213 10.689C50.7465 8.7735 51.657 6.348 51.639 4.4505C51.639 4.35 51.621 4.2675 51.609 4.179C51.7035 3.315 51.615 2.3865 51.2835 1.3695C50.6505 -0.563996 46.908 0.264004 47.5455 2.1975C49.4265 7.9275 39.1005 11.352 38.3145 16.9755C37.4685 23.061 42.696 29.7195 49.5915 32.1795C50.745 32.5935 51.8205 32.103 52.3005 31.41C53.0274 31.1379 53.7295 30.8037 54.399 30.411C49.404 27.2715 46.0635 21.9345 46.755 16.9755Z" fill="#FBCD0F"/>
<path d="M65.319 37.26C64.7745 38.1735 63.9525 38.688 63.4785 38.4135C63.0105 38.13 63.072 37.1625 63.609 36.249L75.8805 15.5565C76.4235 14.64 77.247 14.1225 77.721 14.403C78.1875 14.6805 78.1275 15.651 77.5905 16.5675L65.319 37.26Z" fill="#FAA92F"/>
<path d="M82.4985 11.6775L87.27 15.5385L81.3 16.9815L79.1025 22.725L75.8805 17.4915L69.741 17.178L73.725 12.4935L72.135 6.55651L77.814 8.89801L82.965 5.54251L82.4985 11.6775Z" fill="#28A6DE"/>
<path d="M81.405 7.98748C81.855 7.16348 82.373 6.39098 82.959 5.66998L82.965 5.54398L77.814 8.89948L72.1305 6.55648L73.7265 12.4935L69.741 17.178L75.8805 17.4915L79.1025 22.731L80.037 20.289C78.8666 16.1674 79.3576 11.7512 81.405 7.98748Z" fill="#28A6DE"/>
<path d="M35.5785 35.865C35.928 36.5925 35.904 37.326 35.532 37.503C35.154 37.68 34.5735 37.236 34.23 36.5085L26.436 20.0925C26.0925 19.365 26.1105 18.6375 26.49 18.4545C26.8635 18.2835 27.4425 18.726 27.7905 19.4475L35.5785 35.865Z" fill="#FAA92F"/>
<path d="M26.79 14.3098L31.2315 12.9433L29.6175 17.3008L32.2905 21.0898L27.648 20.9083L24.8625 24.6223L23.6085 20.1523L19.209 18.6523L23.076 16.0738L23.148 11.4313L26.79 14.3098Z" fill="#28A6DE"/>
<path d="M24.015 13.44C23.6905 12.8157 23.4254 12.1623 23.223 11.4885L23.1465 11.4285L23.076 16.071L19.209 18.6495L23.6085 20.1495L24.8625 24.6195L27.648 20.9055L32.2905 21.0945L31.155 19.4805C28.0741 18.4803 25.5097 16.3092 24.015 13.4355" fill="#28A6DE"/>
</svg>
