<svg width="101" height="101" viewBox="0 0 101 101" fill="none" xmlns="http://www.w3.org/2000/svg">
<g clip-path="url(#clip0_3_32)">
<path d="M95.9027 49.632C95.879 70.1634 95.8948 72.933 95.8948 75.7026C95.9027 80.8947 93.6144 85.274 89.9137 88.951C82.3939 96.4155 71.8205 99.6191 61.3102 100.424C57.7831 100.692 54.2165 100.779 50.6815 100.779C47.1465 100.779 43.5799 100.692 40.0528 100.424C29.5425 99.6191 18.9691 96.4155 11.4493 88.951C7.74861 85.274 5.46822 80.9026 5.46822 75.7026C5.46822 72.933 5.47611 70.1555 5.46033 49.632H95.9027Z" fill="#FCC21B"/>
<path d="M95.95 40.1396C88.7853 30.7182 77.1546 23.5929 65.942 21.9122C62.62 21.4151 59.2665 21.1942 55.9288 21.0127C48.3696 20.6024 40.4947 20.918 32.9907 22.0701C24.7687 23.3326 15.8523 27.0964 9.38198 32.9591C7.36987 34.7818 5.94167 37.2043 4.80542 39.674C2.20151 45.3632 1.05737 51.8729 1.05737 58.1302C1.05737 62.2807 1.73597 66.3917 5.34987 68.6958C6.37565 69.3507 7.61448 69.3033 8.75073 69.0587C10.4946 68.6721 11.7176 67.812 13.4535 68.7668C16.0259 70.1713 16.5546 73.1855 17.9749 75.529C20.5314 79.7347 26.2285 81.6127 30.7261 79.8294C35.2948 78.0225 38.4195 82.6858 42.1675 84.406C46.6336 86.4497 51.9992 85.8105 56.2681 83.6327C57.4359 83.033 58.2802 82.165 59.2981 81.3286C61.2392 79.719 63.488 78.7563 65.9893 78.6774C69.3034 78.5748 72.6175 80.0583 75.9 79.0483C78.6064 78.2276 80.5318 75.7658 81.96 73.3986C83.1751 71.3865 84.1693 68.7983 86.7969 68.53C89.4403 68.2697 91.6339 70.842 94.364 69.974C99.201 68.4354 99.9111 61.9808 99.9664 57.6331C100.037 52.2754 99.272 46.0733 96.6996 41.3153C96.4629 40.905 96.2262 40.5104 95.95 40.1396Z" fill="#FFF3E0"/>
<path d="M59.1244 33.3695C59.0534 33.8271 59.0613 34.3163 59.0613 34.7582C59.0534 36.3206 59.0219 37.8829 58.9824 39.4453C58.9114 42.5699 58.8246 45.6867 58.8246 48.8114C58.8246 50.8314 57.9566 55.0766 60.3475 56.0156C62.6594 56.9309 65.5474 56.4496 65.5395 53.1513C65.5316 52.2123 65.5395 51.2733 65.5395 50.3422C65.5395 46.4127 65.5316 42.491 65.5395 38.5536C65.5395 37.4095 65.4133 36.289 65.4212 35.1449C65.4291 34.1901 65.4606 32.9434 64.7662 32.249C64.2218 31.7045 63.4169 31.5862 62.7147 31.5783C61.8862 31.5546 60.7499 31.4363 60.0003 31.8703C59.4401 32.1859 59.2191 32.754 59.1244 33.3695Z" fill="#40C0E7"/>
<path d="M59.0297 36.147C57.8619 35.4368 56.923 34.3873 56.3469 32.967C55.9445 31.9728 55.6683 30.6788 55.7236 29.5977C55.8577 27.0017 57.2859 24.603 59.1323 22.8513C60.2212 21.8097 61.5469 20.4998 63.0934 20.2158C66.3759 19.6161 68.6721 24.9896 69.3507 27.412C70.5816 31.7992 68.0645 36.3995 63.3538 36.8413C62.1229 36.9597 60.1108 36.794 59.0297 36.147Z" fill="#ED6C30"/>
<path d="M60.7499 35.2158C60.2607 34.8765 59.874 34.3636 59.6294 33.6772C59.4637 33.1958 59.3454 32.5646 59.369 32.0438C59.4243 30.7892 60.024 29.6293 60.7894 28.7771C61.247 28.2721 61.7994 27.6329 62.4464 27.4988C63.8194 27.2068 64.782 29.8108 65.0582 30.9865C65.5711 33.1169 64.5216 35.3421 62.549 35.5551C62.044 35.6025 61.1997 35.5236 60.7499 35.2158Z" fill="#FCC21B"/>
<path d="M76.8389 19.695C76.7679 20.1526 76.7758 20.6497 76.7758 21.0837C76.7679 22.654 76.7363 24.2084 76.6969 25.7708C76.6259 28.8954 76.5391 32.0122 76.5391 35.1369C76.5391 37.1569 75.6711 41.4021 78.062 42.3411C80.366 43.2564 83.2698 42.7751 83.254 39.4768C83.2461 38.5457 83.254 37.6067 83.254 36.6677C83.254 32.7382 83.2461 28.8244 83.254 24.8791C83.254 23.735 83.1278 22.6066 83.1356 21.4704C83.1435 20.5077 83.183 19.2689 82.4807 18.5745C81.9363 18.0301 81.1314 17.9196 80.4292 17.9038C79.6006 17.8801 78.4644 17.7618 77.7227 18.1958C77.1546 18.5114 76.9257 19.0795 76.8389 19.695Z" fill="#40C0E7"/>
<path d="M76.7442 22.4725C75.5843 21.7624 74.6374 20.7129 74.0614 19.2926C73.659 18.2984 73.3907 17.0043 73.438 15.9233C73.5722 13.3352 75.0083 10.9285 76.8468 9.17682C77.9357 8.13525 79.2613 6.82541 80.8079 6.54135C84.0904 5.94166 86.3944 11.3152 87.073 13.7376C88.304 18.1248 85.779 22.725 81.0683 23.1669C79.8373 23.2853 77.8173 23.1196 76.7442 22.4725Z" fill="#ED6C30"/>
<path d="M78.4328 21.565C77.9436 21.2494 77.549 20.7681 77.3044 20.1211C77.1387 19.6713 77.0204 19.0874 77.044 18.5982C77.0914 17.4146 77.699 16.3336 78.4722 15.5366C78.9299 15.0632 79.4901 14.4635 80.1372 14.3451C81.518 14.069 82.4728 16.5072 82.7647 17.604C83.2776 19.6003 82.2203 21.6834 80.2476 21.8886C79.7347 21.9359 78.8904 21.857 78.4328 21.565Z" fill="#FCC21B"/>
<path d="M45.7419 13.4141C45.6709 13.8717 45.6788 14.3689 45.6788 14.8028C45.6709 16.3731 45.6394 17.9275 45.5999 19.4899C45.5289 22.6146 45.4421 25.7314 45.4421 28.856C45.4421 30.876 44.5741 35.1212 46.965 36.0602C49.2769 36.9755 52.1728 36.4942 52.157 33.1959C52.1491 32.2648 52.157 31.3258 52.157 30.3868C52.157 26.4573 52.1491 22.5435 52.157 18.5982C52.157 17.4541 52.0308 16.3257 52.0387 15.1895C52.0465 14.2268 52.0781 12.988 51.3837 12.2936C50.8393 11.7492 50.0344 11.6387 49.3322 11.6229C48.5037 11.5992 47.3674 11.4809 46.6178 11.9149C46.0576 12.2305 45.8287 12.7986 45.7419 13.4141Z" fill="#40C0E7"/>
<path d="M45.6472 16.1916C44.4794 15.4814 43.5404 14.4319 42.9644 13.0116C42.562 12.0174 42.2858 10.7234 42.3411 9.64234C42.4752 7.05421 43.9034 4.64757 45.7498 2.89585C46.8387 1.86218 48.1644 0.544448 49.7109 0.268276C52.9934 -0.331411 55.2896 5.0421 55.9761 7.46453C57.207 11.8517 54.6899 16.4519 49.9713 16.8938C48.7404 17.0122 46.7204 16.8465 45.6472 16.1916Z" fill="#ED6C30"/>
<path d="M47.4148 15.2841C46.9019 14.9369 46.4916 14.4004 46.2391 13.6902C46.0576 13.1931 45.9392 12.5382 45.9708 12.0016C46.026 10.6997 46.6573 9.50031 47.4621 8.62445C47.9356 8.10367 48.5195 7.44875 49.1902 7.30671C50.6263 7.01476 51.6363 9.69757 51.9361 10.9127C52.4806 13.1142 51.368 15.4183 49.3085 15.6392C48.772 15.6944 47.8882 15.6077 47.4148 15.2841Z" fill="#FCC21B"/>
<path d="M31.6967 31.7203C31.6256 32.178 31.6335 32.6672 31.6335 33.1091C31.6256 34.6714 31.5941 36.2337 31.5546 37.7961C31.4836 40.9208 31.3968 44.0376 31.3968 47.1623C31.3968 49.1823 30.5288 53.4274 32.9197 54.3664C35.2238 55.2817 38.1196 54.8004 38.1117 51.5021C38.1038 50.5631 38.1117 49.6241 38.1117 48.693C38.1117 44.7635 38.1038 40.8419 38.1117 36.9044C38.1117 35.7603 37.9855 34.6398 37.9934 33.4957C38.0013 32.5409 38.0328 31.2942 37.3384 30.5998C36.794 30.0554 35.997 29.937 35.2869 29.9291C34.4584 29.9055 33.3221 29.7871 32.5804 30.2211C32.0123 30.5288 31.7834 31.0969 31.6967 31.7203Z" fill="#40C0E7"/>
<path d="M31.5941 34.4899C30.4263 33.7798 29.4873 32.7303 28.9113 31.31C28.5088 30.3158 28.2327 29.0217 28.2879 27.9407C28.4221 25.3447 29.8503 22.9459 31.6967 21.1942C32.7856 20.1526 34.1191 18.8428 35.6578 18.5587C38.9403 17.9591 41.2364 23.3326 41.9229 25.755C43.1539 30.1422 40.6367 34.7424 35.926 35.1843C34.6951 35.3105 32.6751 35.1448 31.5941 34.4899Z" fill="#ED6C30"/>
<path d="M33.2984 33.5825C32.7776 33.2274 32.3594 32.683 32.1069 31.957C31.9255 31.4441 31.7992 30.7892 31.8308 30.2369C31.8939 28.9033 32.533 27.6803 33.3458 26.7808C33.835 26.2442 34.4268 25.5735 35.1133 25.4315C36.5809 25.1237 37.6067 27.8776 37.9066 29.1164C38.451 31.3652 37.3305 33.7166 35.2237 33.9455C34.6793 34.0007 33.7798 33.9139 33.2984 33.5825Z" fill="#FCC21B"/>
<path d="M16.4835 17.5724C16.4125 18.038 16.4204 18.5272 16.4204 18.9612C16.4125 20.5235 16.3809 22.0859 16.3415 23.6482C16.2705 26.765 16.1837 29.8897 16.1837 33.0144C16.1837 35.0344 15.3157 39.2716 17.7066 40.2185C20.0185 41.1259 22.9144 40.6525 22.8986 37.3542C22.8907 36.4152 22.8986 35.4841 22.8986 34.5452C22.8986 30.6156 22.8907 26.694 22.8986 22.7566C22.8986 21.6124 22.7723 20.492 22.7802 19.3399C22.7881 18.3852 22.8197 17.1384 22.1253 16.4441C21.5809 15.8996 20.776 15.7813 20.0738 15.7655C19.2452 15.7497 18.109 15.6234 17.3594 16.0574C16.7991 16.3809 16.5703 16.957 16.4835 17.5724Z" fill="#40C0E7"/>
<path d="M16.3809 20.342C15.2131 19.6319 14.2742 18.5824 13.6981 17.17C13.2957 16.1758 13.0195 14.8817 13.0748 13.8007C13.2089 11.2047 14.6371 8.80592 16.4835 7.0542C17.5724 6.01263 18.8981 4.6949 20.4446 4.41873C23.7271 3.81904 26.0233 9.19256 26.7098 11.615C27.9407 16.0022 25.4236 20.6024 20.7129 21.0443C19.482 21.1547 17.462 20.989 16.3809 20.342Z" fill="#ED6C30"/>
<path d="M18.1721 19.403C17.6829 19.0322 17.2884 18.4798 17.0437 17.7381C16.878 17.2173 16.7597 16.5387 16.7834 15.9785C16.8386 14.6213 17.4383 13.3588 18.2116 12.4435C18.6692 11.899 19.2294 11.2126 19.8765 11.0626C21.2573 10.747 22.22 13.564 22.5041 14.8265C23.0169 17.1305 21.9596 19.5293 19.9791 19.766C19.4741 19.8291 18.6298 19.7423 18.1721 19.403Z" fill="#FCC21B"/>
<path d="M96.6838 41.3153C96.4629 40.9129 96.2262 40.5105 95.9421 40.1396C95.7369 39.8713 95.516 39.603 95.303 39.3427C95.5712 40.6683 99.4455 63.5037 50.1212 63.5037C1.29405 63.5037 4.60022 41.1259 4.93163 39.39C4.88428 39.4847 4.83694 39.5794 4.79749 39.6741C2.19358 45.3632 1.04944 51.873 1.04944 58.1302C1.04944 62.2807 1.72803 66.3917 5.34194 68.6958C6.36772 69.3507 7.60655 69.3034 8.7428 69.0587C10.4866 68.6721 11.7097 67.812 13.4456 68.7668C16.018 70.1713 16.5466 73.1855 17.9669 75.5291C20.5235 79.7348 26.2205 81.6127 30.7182 79.8294C35.2869 78.0225 38.4115 82.6859 42.1596 84.406C46.6257 86.4497 51.9913 85.8105 56.2601 83.6327C57.428 83.033 58.2722 82.1651 59.2901 81.3287C61.2312 79.719 63.4801 78.7563 65.9814 78.6774C69.2955 78.5748 72.6095 80.0583 75.892 79.0483C78.5985 78.2277 80.5238 75.7658 81.952 73.3986C83.1672 71.3865 84.1614 68.7984 86.789 68.5301C89.4323 68.2697 91.6259 70.842 94.3561 69.9741C99.193 68.4354 99.9032 61.9809 99.9584 57.6331C100.014 52.2754 99.2562 46.0734 96.6838 41.3153Z" fill="#FFE0B2"/>
</g>
<defs>
<clipPath id="clip0_3_32">
<rect width="101" height="101" fill="white"/>
</clipPath>
</defs>
</svg>
