<svg width="103" height="103" viewBox="0 0 103 103" fill="none" xmlns="http://www.w3.org/2000/svg">
<path d="M8.24774 57.4251C8.24774 32.4733 22.145 1.28748 49.937 1.28748C78.9418 1.28748 94.7523 35.5993 94.7523 60.5434C94.7523 85.1964 80.855 101.712 53.0605 101.712C27.3208 101.712 8.24774 83.3399 8.24774 57.4251Z" fill="#00034A" stroke="#00034A" stroke-width="0.5" stroke-miterlimit="10"/>
<path d="M8.24774 57.4251C8.24774 82.0755 22.145 98.5942 49.937 98.5942C77.7367 98.5942 91.634 82.0755 91.634 57.4251C91.634 32.7746 77.7367 1.28748 49.9396 1.28748C22.1424 1.28748 8.24774 32.4759 8.24774 57.4251Z" fill="#9BFF00" stroke="#00034A" stroke-width="0.5" stroke-miterlimit="10"/>
<path d="M78.6328 67.4057C78.281 66.026 77.7621 64.6943 77.0878 63.4402C76.5847 62.4893 76.0078 61.5793 75.3626 60.7185C75.869 59.8378 76.3024 58.9228 76.6629 57.9735C77.2088 56.6551 77.5874 55.2698 77.7856 53.8587C77.815 53.4412 77.6844 53.0283 77.4204 52.7036C77.1565 52.3789 76.7789 52.1668 76.3642 52.1102C74.9448 52.0258 73.5204 52.1097 72.1206 52.36C71.1267 52.5471 70.1456 52.7883 69.1774 53.0836C68.4878 52.3335 67.7461 51.6331 66.9578 50.9875C65.8699 50.0686 64.6709 49.29 63.3888 48.67C63.0039 48.5076 62.5711 48.4999 62.1806 48.6486C61.7901 48.7973 61.4721 49.0909 61.2928 49.4683C60.7674 50.7905 60.4076 52.1726 60.2216 53.5831C60.0585 54.584 59.958 55.5899 59.9203 56.601C58.9212 57.0388 57.965 57.5547 57.0517 58.1486C55.8384 58.898 54.7226 59.7949 53.73 60.8189C53.4517 61.1266 53.2976 61.5267 53.2976 61.9416C53.2976 62.3565 53.4517 62.7566 53.73 63.0643C54.8407 63.969 56.0389 64.7346 57.3247 65.3612C58.2448 65.811 59.1933 66.1929 60.1701 66.5071C60.2782 67.5285 60.461 68.5353 60.7185 69.5275C61.043 70.9077 61.5477 72.2416 62.2172 73.493C62.4354 73.8498 62.781 74.1103 63.1841 74.2217C63.5871 74.3331 64.0175 74.2871 64.3879 74.093C65.5829 73.3112 66.6874 72.3992 67.6813 71.3738C68.4229 70.6408 69.0967 69.8511 69.7027 69.0048C70.7791 69.2452 71.8683 69.3945 72.9704 69.4529C74.4452 69.5623 75.9277 69.4949 77.3865 69.252C77.7846 69.1508 78.1316 68.9068 78.3614 68.5663C78.5912 68.2259 78.6878 67.8128 78.6328 67.4057ZM52.8725 32.3883C54.8553 24.9749 51.1189 17.5306 44.5166 15.7615C37.9143 13.9925 30.9515 18.5683 28.9636 25.9843C26.9809 33.3977 30.7198 40.842 37.3221 42.6085C43.9244 44.3749 50.8872 39.8017 52.8725 32.3883ZM37.9092 80.0258C41.7279 77.8216 42.4412 71.9043 39.498 66.8083C36.5547 61.7124 31.0751 59.3666 27.2564 61.5734C23.4377 63.7776 22.7244 69.6975 25.6676 74.7934C28.6109 79.8868 34.0879 82.2326 37.9092 80.0258Z" fill="white" stroke="#00034A" stroke-width="0.5" stroke-miterlimit="10"/>
</svg>
