<svg width="104" height="104" viewBox="0 0 104 104" fill="none" xmlns="http://www.w3.org/2000/svg">
<path d="M8.55402 59.8C8.55402 85.488 23.036 102.7 52 102.7C80.964 102.7 95.446 85.488 95.446 59.8C95.446 34.112 80.964 1.29999 52 1.29999C23.036 1.29999 8.55402 33.8 8.55402 59.8Z" fill="#48EEFF" stroke="#231F20" stroke-width="0.5" stroke-miterlimit="10"/>
<path d="M81.9 70.2C81.5333 68.7614 80.9919 67.3731 80.288 66.066C79.7673 65.0746 79.1673 64.1268 78.494 63.232C79.0192 62.3133 79.4699 61.36 79.846 60.372C80.4154 58.9966 80.808 57.5562 81.016 56.082C81.0463 55.6471 80.9101 55.217 80.6348 54.879C80.3596 54.541 79.966 54.3204 79.534 54.262C78.0556 54.1684 76.5713 54.2557 75.114 54.522C74.0775 54.7178 73.0548 54.9692 72.046 55.276C71.3251 54.4963 70.552 53.7666 69.732 53.092C68.5991 52.1331 67.3499 51.3207 66.014 50.674C65.6129 50.5046 65.1619 50.4966 64.755 50.6516C64.3481 50.8066 64.0168 51.1127 63.83 51.506C63.2839 52.8851 62.9085 54.3258 62.712 55.796C62.5456 56.8377 62.4416 57.8864 62.4 58.942C61.3583 59.3944 60.3616 59.9317 59.41 60.554C58.1438 61.334 56.9842 62.2674 55.952 63.336C55.6615 63.6564 55.5006 64.0735 55.5006 64.506C55.5006 64.9385 55.6615 65.3555 55.952 65.676C57.1038 66.6146 58.3596 67.418 59.696 68.068C60.6563 68.536 61.6443 68.9346 62.66 69.264C62.7727 70.3265 62.9633 71.3752 63.232 72.41C63.57 73.8504 64.0952 75.2388 64.792 76.544C65.0193 76.9158 65.3796 77.1871 65.7997 77.303C66.2198 77.4189 66.6682 77.3706 67.054 77.168C68.2994 76.3542 69.4512 75.4 70.486 74.334C71.2602 73.575 71.965 72.7484 72.592 71.864C73.7135 72.117 74.8488 72.273 75.998 72.332C77.5348 72.4447 79.0796 72.3749 80.6 72.124C81.0153 72.0192 81.3775 71.7651 81.6173 71.4102C81.8571 71.0552 81.9578 70.6244 81.9 70.2ZM38.8492 44.3612C40.4985 44.7991 42.2236 44.871 43.9036 44.5718C45.6362 44.2571 47.2868 43.5937 48.7552 42.6218C50.2865 41.6044 51.6152 40.311 52.6734 38.8076C53.7598 37.2616 54.5659 35.5367 55.055 33.7116C55.549 31.8734 55.7128 29.9676 55.5412 28.1034C55.3778 26.2725 54.8753 24.488 54.0592 22.841C53.272 21.2642 52.1725 19.8639 50.8274 18.7252C49.5224 17.6281 47.9935 16.8295 46.3476 16.3852C44.6993 15.9467 42.9751 15.874 41.2958 16.172C39.5623 16.4863 37.9108 17.1498 36.4416 18.122C34.9105 19.1386 33.5818 20.4311 32.5234 21.9336C31.4365 23.4811 30.6303 25.2078 30.1418 27.0348C29.6524 28.8604 29.4878 30.7578 29.6556 32.6404C29.819 34.4712 30.3215 36.2557 31.1376 37.9028C31.9247 39.4796 33.0243 40.8799 34.3694 42.0186C35.6743 43.1156 37.2033 43.9169 38.8492 44.3612ZM26.7072 77.896C27.4352 79.1596 28.3452 80.3036 29.38 81.2604C30.4148 82.2172 31.5562 82.9712 32.7418 83.4782C33.9274 83.9852 35.1286 84.2322 36.283 84.2114C37.4348 84.1906 38.5164 83.8994 39.4628 83.3534C40.4092 82.8074 41.2022 82.017 41.7976 81.029C42.393 80.041 42.7778 78.871 42.9312 77.5944C43.0795 76.2498 42.9986 74.8897 42.692 73.5722C42.371 72.1684 41.8398 70.8211 41.1164 69.576C40.3998 68.3272 39.4987 67.1938 38.4436 66.2142C37.4564 65.2902 36.3197 64.5403 35.0818 63.9964C33.9669 63.5032 32.7597 63.2532 31.5406 63.2632C30.3888 63.284 29.3046 63.5752 28.3608 64.1212C27.417 64.6672 26.6188 65.4576 26.026 66.4456C25.4306 67.4336 25.0458 68.601 24.8924 69.8802C24.7444 71.2239 24.8253 72.5831 25.1316 73.8998C25.4436 75.2778 25.9766 76.635 26.7072 77.896Z" fill="#FFE236" stroke="#231F20" stroke-width="0.5" stroke-miterlimit="10"/>
<path d="M63.102 10.4C67.9516 12.2603 72.2031 15.4062 75.4 19.5" stroke="white" stroke-width="0.5" stroke-miterlimit="10" stroke-linecap="round"/>
</svg>
