<svg width="106" height="106" viewBox="0 0 106 106" fill="none" xmlns="http://www.w3.org/2000/svg">
<path d="M75.0833 61.8333C74.0233 60.7733 73.14 59.625 72.2125 58.5208C77.2916 50.7916 83.9166 37.8066 83.9166 22.0833C83.9166 13.4708 80.6483 8.83331 75.0833 8.83331C68.2816 8.83331 57.5933 17.9316 53 35.2008C48.4066 17.9316 37.7183 8.83331 30.9166 8.83331C25.3516 8.83331 22.0833 13.4708 22.0833 22.0833C22.0833 37.8066 28.7083 50.7916 33.7875 58.5208C32.86 59.625 31.9766 60.7733 30.9166 61.8333C29.8125 62.9375 22.0833 67.9725 22.0833 77.2917C22.0833 88.3333 30.9166 97.1667 41.9583 97.1667C48.5833 97.1667 53 94.9583 53 94.9583C53 94.9583 57.4166 97.1667 64.0416 97.1667C75.0833 97.1667 83.9166 88.3333 83.9166 77.2917C83.9166 67.9725 76.1875 62.9375 75.0833 61.8333ZM74.5533 17.7991C74.8183 18.55 75.0833 19.875 75.0833 22.0833C75.0833 34.6266 70.1808 45.2266 65.9408 52.0283C64.2625 50.7916 62.275 49.9083 59.7575 49.29C60.8175 29.3266 70.5341 19.1241 74.5533 17.7991ZM30.9166 22.0833C30.9166 19.875 31.1816 18.55 31.4466 17.7991C35.4658 19.1241 45.1825 29.3266 46.375 49.29C43.725 49.9083 41.7375 50.7916 40.1033 52.0283C35.8191 45.2266 30.9166 34.6266 30.9166 22.0833ZM64.0416 88.3333C59.625 88.3333 56.0916 86.8758 54.2366 85.86C56.0916 85.065 57.4166 82.7242 57.4166 81.7083C57.4166 80.4717 55.4291 79.5 53 79.5C50.5708 79.5 48.5833 80.4717 48.5833 81.7083C48.5833 82.7242 49.9083 85.065 51.7633 85.86C49.9083 86.8758 46.375 88.3333 41.9583 88.3333C39.0299 88.3333 36.2214 87.17 34.1507 85.0993C32.08 83.0286 30.9166 80.2201 30.9166 77.2917C30.9166 74.2 32.8158 71.815 35.3333 69.6508C37.2766 68.0608 38.0275 67.3541 41.075 63.6C44.4316 59.4041 45.8891 57.4166 53 57.4166C60.1108 57.4166 61.5683 59.4041 64.925 63.6C67.9725 67.3541 68.7233 68.0608 70.6666 69.6508C73.1841 71.815 75.0833 74.2 75.0833 77.2917C75.0833 80.2201 73.92 83.0286 71.8493 85.0993C69.7786 87.17 66.9701 88.3333 64.0416 88.3333ZM61.8333 70.6667C61.8333 72.4775 60.8616 73.9792 59.625 73.9792C58.3883 73.9792 57.4166 72.4775 57.4166 70.6667C57.4166 68.8558 58.3883 67.3542 59.625 67.3542C60.8616 67.3542 61.8333 68.8558 61.8333 70.6667ZM48.5833 70.6667C48.5833 72.4775 47.6116 73.9792 46.375 73.9792C45.1383 73.9792 44.1666 72.4775 44.1666 70.6667C44.1666 68.8558 45.1383 67.3542 46.375 67.3542C47.6116 67.3542 48.5833 68.8558 48.5833 70.6667Z" fill="black"/>
</svg>
